<?xml version="1.0" encoding="utf-8"?>
<!-- Generator: Adobe Illustrator 28.1.0, SVG Export Plug-In . SVG Version: 6.00 Build 0)  -->
<svg version="1.1" id="Ebene_1" xmlns="http://www.w3.org/2000/svg" xmlns:xlink="http://www.w3.org/1999/xlink" x="0px" y="0px"
	 viewBox="0 0 966 597" style="enable-background:new 0 0 966 597;" xml:space="preserve">
<style type="text/css">
	.st0{fill:#FFFFFF;}
	.st1{fill:#BCE3F9;}
	.st2{fill:#8CBF42;}
	.st3{fill:#0EA69D;}
	.st4{fill:#E62A6A;}
	.st5{fill:#51338A;}
	.st6{fill:#F39419;}
	.st7{fill:#FDE90C;}
	.st8{clip-path:url(#SVGID_00000136395761228424613800000004382308368201243049_);}
	.st9{clip-path:url(#SVGID_00000111155378478347151440000016539855304465498043_);}
	.st10{clip-path:url(#SVGID_00000003827819303102638920000007786429869187062939_);}
	.st11{fill:#fff;} 
</style>
<circle class="st0" cx="482.6" cy="212.6" r="208"/>
<path class="st1" d="M318.8,245c16.9-1,33.8-1.8,50.7-2c21.6-0.3,43.3,0.1,64.8,1.5c25,1.6,50,4.5,74.7,8.8
	c26.3,4.6,52.3,11,77.6,19.3c27.6-6.1,55.5-10.8,83.6-13.7c4.3-16,6.5-32.7,6.5-50c0-106.9-86.7-193.6-193.5-193.6
	S289.6,102,289.6,208.9c0,12.9,1.3,25.6,3.7,37.8C301.8,246.3,310.3,245.6,318.8,245L318.8,245z"/>
<g>
	<path class="st2" d="M373.7,359.4c-6.2-1.5-12.5-2.8-18.9-3.6c-0.2,0-0.5,0-0.4,0c-0.1,0-0.2,0-0.2,0c-0.4,0-0.8-0.1-1.1-0.1
		c-0.8-0.1-1.5-0.2-2.3-0.3c-0.7-0.1-1.4-0.1-2.1-0.2c7.2,7,15,13.5,23.2,19.3c4.8-3.8,9.6-7.6,14.4-11.3
		C382.1,361.7,377.9,360.5,373.7,359.4L373.7,359.4z"/>
	<path class="st2" d="M427.8,336.2c-7.8-2.7-15.6-5.1-23.5-7.3c-19.4-5.5-39.2-9.5-59.2-12.3c0,0-0.1,0-0.1,0c0,0-0.1,0-0.1,0
		c-0.3,0-0.7-0.1-1-0.1c-0.6-0.1-1.1-0.2-1.7-0.2c-1.2-0.2-2.5-0.3-3.7-0.5c-2.5-0.3-5-0.6-7.4-0.8c-4.9-0.5-9.9-0.9-14.8-1.2
		c6.7,11.5,14.6,22.3,23.5,32.1c6.4,0.3,12.9,0.9,19.2,1.9c12.2,1.8,24.2,4.9,35.8,9.2C405.3,349.3,416.4,342.5,427.8,336.2
		L427.8,336.2z"/>
	<path class="st2" d="M460.7,274.4c10.6,4,21,8.3,31,13.5c3.9,2.1,7.8,4.3,11.5,6.7c2.7,1.8,5.3,3.8,7.7,6
		c19.9-6.7,40.2-12.4,60.7-17.3c-23.9-7.2-48.3-12.6-73-16.5c-23.9-3.8-48.3-6.2-72.7-7.5c-5.5-0.3-11.1-0.5-16.6-0.7
		c5.2,1.3,10.4,2.6,15.5,4.1C436.9,266.2,448.9,270,460.7,274.4L460.7,274.4z"/>
	<path class="st2" d="M354.6,355.8c-0.2,0-0.2,0-0.3,0c0.2,0,0.3,0.1,0.4,0C354.7,355.8,354.7,355.8,354.6,355.8L354.6,355.8z"/>
	<path class="st2" d="M374.1,260.6c-0.3,0-0.7-0.1-1-0.1c0,0,0,0-0.1,0l0,0c-0.6-0.1-1.2-0.2-1.8-0.2c-1.3-0.2-2.6-0.3-3.9-0.4
		c-4.7-0.5-9.3-0.8-14-0.8c-0.3,0-0.5,0-0.8-0.1c-12.9,0.4-25.7,1.1-38.6,1.9c-6.2,0.4-12.4,0.9-18.7,1.3c1.4,5.5,3,11,4.8,16.4
		c14.3-0.9,28.6-1.2,42.8-0.7c13.9,0.5,27.7,1.8,41.5,3.9c11.8,1.9,23.6,4.5,35,8.1c10.2,3.2,20.1,7.3,29.4,12.5
		c7.1,4,13.9,8.7,19.8,14.3c0.9-0.4,1.7-0.7,2.6-1.1c10-4.2,20.1-8,30.3-11.6c-0.1-0.1-0.2-0.1-0.3-0.2c-1.6-1.2-3.2-2.2-4.9-3.3
		c-3.9-2.4-7.9-4.6-12-6.7c-2.3-1.2-4.7-2.3-7.1-3.4c-1.2-0.5-2.4-1.1-3.7-1.6c-0.7-0.3-1.3-0.6-2-0.9c-0.3-0.1-1.6-0.7-0.2-0.1
		c-0.3-0.1-0.6-0.2-0.9-0.4c-5.5-2.3-11-4.4-16.5-6.4c-11.8-4.2-23.8-8-35.9-11.2c-11.8-3.2-23.6-5.9-35.6-8
		C379.6,261.5,376.9,261,374.1,260.6L374.1,260.6z"/>
	<path class="st2" d="M456.5,317.8L456.5,317.8C457.2,318.3,456.8,318,456.5,317.8z"/>
	<path class="st2" d="M354.8,355.8C354.8,355.8,354.8,355.8,354.8,355.8L354.8,355.8C354.8,355.8,354.8,355.8,354.8,355.8
		L354.8,355.8z"/>
	<path class="st2" d="M561.5,360.7c20-4.7,40.5-7.5,61-8.3c10.2-10.3,19.2-21.7,26.9-34c-28.6,0.7-57.1,3.9-85.2,9.7
		c-29,6-57.2,14.7-83.8,27.9c-23,11.4-44.7,25.5-64.5,41.8c13.6,5.1,28,8.8,42.9,10.7c12.1-9.2,25-17.4,38.5-24.4
		C517.6,373.6,539.2,365.9,561.5,360.7L561.5,360.7z"/>
	<path class="st2" d="M555.5,371.1c-21.6,5.7-41.7,13.5-61.1,24.3c-7.9,4.4-15.5,9.2-22.8,14.3c4.2,0.3,8.3,0.4,12.6,0.4
		c49.3,0,94.3-18.3,128.6-48.5C593.4,363,574.5,366.1,555.5,371.1L555.5,371.1z"/>
	<path class="st2" d="M485.5,343.9c28.2-12.8,58-21,88.5-26.5c26.6-4.8,53.5-7.4,80.5-7.7c6.1-11,11.2-22.7,15.1-35
		c-27,3-53.8,7.5-80.3,13.4c-0.4,0.1-0.7,0.2-1.1,0.2c-8.8,2-17.6,4.1-26.3,6.3c-31.2,8-61.9,17.9-91.5,30.5c-0.6,0.6-1.4,0.9-2.3,1
		c-2.5,1.1-5.1,2.2-7.6,3.3c-14.8,6.6-29.3,14-43.1,22.6c-6.2,3.8-12.4,8-18.4,12.3c-0.5,0.7-1.3,1.3-2.2,1.6
		c-3.7,2.7-7.4,5.5-10.8,8.2c-2.2,1.8-4.5,3.5-6.7,5.3c8.7,5.6,17.9,10.5,27.5,14.6c2.1-1.8,4.3-3.5,6.4-5.3
		C435.4,371,459.6,355.7,485.5,343.9L485.5,343.9z"/>
	<path class="st2" d="M459.8,320.4c-0.7-0.6-1.4-1.2-2.1-1.8c-0.3-0.3-0.7-0.5-1-0.8c0,0,0,0-0.1,0c0,0,0,0,0,0c0,0,0,0,0,0
		c0,0-0.1-0.1-0.1-0.1c-0.2-0.2-0.5-0.3-0.7-0.5c-0.9-0.6-1.7-1.3-2.6-1.9c-3.8-2.7-7.9-5-12-7.2c-2.2-1.1-4.4-2.2-6.7-3.3
		c-1.1-0.5-2.3-1-3.4-1.5c-0.1,0-0.1,0-0.2-0.1c-0.3-0.1-0.6-0.2-0.9-0.4c-0.6-0.2-1.2-0.5-1.8-0.7c-5.1-2-10.3-3.8-15.5-5.3
		c-11.6-3.4-23.5-5.8-35.4-7.5c-0.4-0.1-0.8-0.1-1.2-0.2c-0.1,0-0.5-0.1-0.5-0.1c-0.7-0.1-1.5-0.2-2.2-0.3c-1.6-0.2-3.2-0.4-4.8-0.6
		c-3.4-0.4-6.7-0.7-10.1-1c-7-0.5-14-0.9-21.1-1c-11.4-0.2-22.8,0-34.2,0.6c2.4,6.1,5.1,12.1,8.1,17.9c2.8,0.1,5.6,0.3,8.4,0.5
		c20.5,1.5,40.8,4.4,60.9,8.8c19.6,4.2,38.9,9.8,57.7,16.7C445.2,327.1,452.4,323.6,459.8,320.4L459.8,320.4z"/>
</g>
<g>
	<g>
		<path class="st3" d="M506,199.7c-0.4-6.5-1.1-13-1.6-19.5c-0.5-6.5-1.1-13.1-1.7-19.6c-0.5-5.5-0.8-11.2-2-16.6
			c-0.7-2.8-1.7-5.6-3-8.2c-2.7-5.1-7-8.6-12.3-10.7c-4.6-1.9-9.6-2.6-14.6-3.1c-8.6-0.9-17.7-1.6-26.1,0.9
			c-4.3,1.3-8.4,3.5-11.6,6.7c-3.9,4-6.2,9.4-7.3,14.8c-1.3,6.4-1.8,13-2.3,19.5c-0.4,6.5-0.7,13-0.8,19.5
			c-0.1,6.4-0.1,12.8-0.2,19.3c0,3.2,0,6.5-0.1,9.7c0,3-0.1,5.9,1.5,8.5c3.4,5.3,10.3,5.2,15.9,5.9c5.8,0.6,11.6,1,17.4,1.6
			c2.6,0.3,4.8,0.5,7,0.8c2.1,0.3,4.2,0.6,6.3,0.8c3.9,0.4,7.8,0.5,11.7,0c8.4-0.9,17-4.4,20.8-12.5
			C505.9,212,506.3,205.8,506,199.7L506,199.7z M440.6,134C440.7,133.9,440.8,133.8,440.6,134L440.6,134z M431.5,217.2
			C431.6,217.3,431.8,217.6,431.5,217.2L431.5,217.2z M431.9,217.4C431.8,217.4,431.7,217.3,431.9,217.4L431.9,217.4z M497.9,206.3
			c-0.2,2.3-0.6,4.6-1.5,6.9c-0.1,0.1-0.3,0.7-0.4,0.8c-0.2,0.4-0.4,0.8-0.7,1.1c-0.2,0.3-0.3,0.5-0.5,0.8c0,0-0.5,0.6-0.6,0.8
			c-0.5,0.6-1.1,1.1-1.7,1.6c-0.2,0.1-0.3,0.2-0.5,0.3c-0.4,0.2-0.8,0.5-1.2,0.7c-0.3,0.2-0.7,0.4-1.1,0.6c-0.2,0.1-0.7,0.3-0.8,0.3
			c-0.8,0.3-1.5,0.6-2.3,0.8c-0.8,0.2-1.7,0.4-2.5,0.6c-0.4,0.1-0.8,0.1-1.3,0.2c-0.3,0-0.6,0.1-0.9,0.1c-1.8,0.2-3.6,0.2-5.5,0.2
			c-1.8,0-3.6-0.1-5.4-0.3c-0.8-0.1-1.7-0.2-2.5-0.2c-0.4,0-0.8-0.1-1.2-0.1c-0.2,0-0.4,0-0.6-0.1c0,0,0,0,0,0c0,0,0,0-0.1,0
			c-5.2-0.8-10.4-1.3-15.6-1.7c-2.7-0.2-5.4-0.5-8-0.7c-2.5-0.2-5.4-0.6-7.4-0.9c-1.1-0.2-2.3-0.3-3.4-0.6c0,0-0.1,0-0.2-0.1
			c-0.2-0.1-0.3-0.2-0.5-0.3c0,0,0,0,0,0c0,0-0.3-0.3-0.4-0.4c-0.1-0.1-0.2-0.2-0.2-0.3c0,0,0,0,0,0c-0.1-0.2-0.1-0.4-0.2-0.6
			c0,0,0,0,0-0.1c0.1-1.5,0-3,0-4.5c0.1-6.1,0.1-12.3,0.1-18.4c0.1-12,0.3-24,1.5-36c0.5-5.3,1-10.9,3.1-15.9c0.4-1,0.9-1.9,1.5-2.8
			c0.3-0.4,0.5-0.8,0.8-1.2c-0.4,0.6-0.1,0.1,0,0c0.2-0.3,0.5-0.5,0.7-0.8c0.6-0.7,1.3-1.3,2-1.9c0,0,0.1-0.1,0.1-0.1
			c0.1-0.1,0.3-0.2,0.4-0.3c0.4-0.3,0.8-0.6,1.3-0.8c0.8-0.4,1.6-0.9,2.4-1.2c0,0,0,0,0,0c0.2-0.1,0.4-0.2,0.6-0.2
			c0.5-0.2,1-0.3,1.5-0.5c0.9-0.3,1.9-0.5,2.9-0.7c0.5-0.1,0.9-0.2,1.4-0.3c0.2,0,0.5-0.1,0.7-0.1c0,0,0,0,0,0c0,0,0,0,0.1,0
			c4-0.4,8-0.4,12-0.2c2,0.1,3.9,0.3,5.9,0.5c1,0.1,2.1,0.2,3.1,0.3c0.2,0,0.4,0.1,0.6,0.1c0.1,0,0.3,0,0.3,0.1
			c0.7,0.1,1.3,0.2,2,0.3c2.2,0.4,4.4,0.9,6.5,1.7c0.2,0.1,0.5,0.2,0.7,0.3c-0.2-0.1-0.6-0.3,0.1,0c0.5,0.2,0.9,0.4,1.4,0.7
			c0.5,0.2,0.9,0.5,1.3,0.8c0.2,0.1,0.4,0.3,0.6,0.4c0,0,0.3,0.3,0.5,0.4c0.1,0.1,0.3,0.2,0.3,0.3c0.2,0.2,0.4,0.3,0.6,0.5
			c0.4,0.4,0.7,0.7,1.1,1.1c0.7,0.8,1.3,1.9,1.9,2.9c0.6,1.2,0.8,1.5,1.2,2.7c0.4,1.3,0.8,2.6,1.1,4c0.3,1.2,0.5,2.4,0.7,3.6
			c0.1,0.6,0.1,0.4,0.2,1.2c0.1,0.7,0.2,1.4,0.2,2c0.5,5.6,0.9,11.2,1.4,16.8c0.5,6.2,1,12.3,1.6,18.5
			C497.4,194.7,498.3,200.6,497.9,206.3L497.9,206.3z"/>
		<path class="st4" d="M558.8,175.4c-0.2-8.9-1.9-17.9-6.1-25.8c-4.2-8-10.9-14.2-19.3-17.6c-7.9-3.2-16.7-2-24.6,0.6
			c-7.6,2.6-15.5,6.2-21.3,11.9c-12.5,12.3-13.8,33.4-4.6,48c8.9,14.1,25.6,22,42,22.1c2.6,0,5.2-0.2,7.7-0.6
			c8.7-1.4,16.7-5.9,21.1-13.7C558.1,192.8,559,183.8,558.8,175.4L558.8,175.4z M537.8,204.2C537.8,204.2,537.8,204.2,537.8,204.2
			L537.8,204.2z M550.6,180.8c0,0.9-0.1,1.8-0.2,2.6c-0.1,1.2-0.2,1.6-0.3,2.4c-0.3,1.8-0.7,3.6-1.2,5.3c-0.2,0.8-0.5,1.6-0.9,2.5
			c0,0,0,0.1,0,0.1c-0.1,0.2-0.2,0.3-0.2,0.5c-0.2,0.5-0.4,0.9-0.7,1.3c-0.4,0.8-0.9,1.6-1.5,2.4c-0.1,0.2-0.2,0.3-0.3,0.5
			c0,0,0,0,0,0.1c-0.3,0.4-0.7,0.8-1,1.1c-1.4,1.4-2.2,2.1-3.8,3c-0.7,0.5-1.5,0.9-2.3,1.2c-0.2,0.1-0.4,0.2-0.6,0.3c0,0,0,0-0.1,0
			c-0.5,0.2-1.1,0.4-1.7,0.6c-1.8,0.6-3.6,1-5.4,1.3c-3.3,0.5-8,0.4-11.1,0c0.2,0-0.7-0.1-0.9-0.1c-0.4-0.1-0.8-0.1-1.2-0.2
			c-0.9-0.2-1.8-0.4-2.7-0.6c-1.8-0.4-3.5-1-5.2-1.6c-1.6-0.6-2.5-1-4.2-1.9c-1.6-0.8-3.1-1.7-4.5-2.6c-1.7-1.1-2.4-1.7-3.8-2.9
			c-1.3-1.1-2.5-2.4-3.7-3.7c-1.3-1.5-1.8-2.1-2.9-3.9c-0.5-0.8-1-1.5-1.4-2.3c-0.2-0.4-0.4-0.8-0.6-1.2c-0.1-0.2-0.2-0.4-0.3-0.6
			c0,0-0.1-0.3-0.2-0.4c-0.8-1.8-1.3-3.6-1.7-5.5c-0.2-0.9-0.4-1.8-0.5-2.7c0,0,0-0.2,0-0.3c0-0.1,0-0.4,0-0.4c0-0.5-0.1-1-0.1-1.6
			c-0.5-7.3,1-14.1,5.2-20c0.6-0.9,0.4-0.6,1.1-1.4c0.6-0.7,1.2-1.3,1.8-2c0.6-0.6,1.2-1.1,1.8-1.7c0.1-0.1,0.5-0.4,0.6-0.5
			c0.3-0.3,0.7-0.5,1.1-0.8c2.9-2,6.1-3.5,9.2-4.9c0.1,0,0.7-0.3,0.7-0.3c0.4-0.2,0.9-0.4,1.3-0.5c0.9-0.4,1.8-0.7,2.7-1
			c1.8-0.6,3.6-1.1,5.4-1.5c0.9-0.2,1.7-0.4,2.6-0.5c0.7-0.1,1.2-0.2,2.4-0.3c1.7-0.1,3.3-0.1,5,0.1c0.1,0,0.6,0.1,0.7,0.1
			c0.4,0.1,0.8,0.2,1.2,0.3c0.9,0.2,1.8,0.6,2.6,0.9c0.2,0.1,0.3,0.1,0.5,0.2c0,0,0.1,0,0.2,0.1c0.5,0.2,0.9,0.4,1.4,0.7
			c0.9,0.4,1.7,0.9,2.5,1.4c1.6,1,2.5,1.7,4,3c0.7,0.6,1.3,1.2,1.9,1.9c0.3,0.4,0.7,0.8,1,1.2c0.4,0.5,0.3,0.3,0.6,0.8
			c2.2,3.1,3.9,6.3,5,9.5c0.7,1.9,1.2,3.8,1.6,5.7c0.2,0.9,0.4,1.8,0.5,2.7c0.1,0.5,0.2,0.9,0.2,1.4c0,0,0,0.3,0.1,0.4
			c0,0.1,0.1,0.5,0.1,0.6C550.7,173,550.8,177,550.6,180.8L550.6,180.8z"/>
		<path class="st5" d="M584.6,159.4c0-6.4-0.1-12.9-0.1-19.3c0-5.4,0.1-10.8-0.7-16.1c-0.7-4.9-2.3-9.6-5.4-13.5
			c-3.2-3.9-7.9-6.2-12.8-6.8c-10.5-1.3-21.4,4.8-27.2,13.4c-8.2,12.7-6.5,29-6.1,43.4c0.5,16.8,0.9,33.5,1.4,50.2
			c0.3,9.4,0.5,18.8,0.8,28.2c0.1,2.1,1.8,4.2,4.1,4.1c14.1-0.5,28.3-1.1,42.4-1.6c2.2-0.1,4.1-1.8,4.1-4.1
			C584.9,211.2,584.8,185.3,584.6,159.4L584.6,159.4z M549.1,117.1c0.1-0.1,0.7-0.6,0.8-0.6c0.3-0.3,0.7-0.5,1.1-0.8
			c0.9-0.6,1.8-1.1,2.7-1.6c0.4-0.2,0.9-0.4,1.3-0.7c0,0,0.2-0.1,0.4-0.2c0.1-0.1,0.3-0.1,0.4-0.1c1-0.4,2-0.7,3-0.9
			c0.5-0.1,1-0.2,1.4-0.3c0.2,0,0.4-0.1,0.6-0.1c0,0,0.1,0,0.1,0c1-0.1,2-0.1,3-0.1c0.1,0,0.8,0.1,1,0.1c0.2,0.1,0.9,0.2,1,0.2
			c0.5,0.1,0.9,0.2,1.3,0.4c0.2,0.1,0.4,0.2,0.7,0.2c0,0,0,0,0,0c0,0,0,0,0.1,0.1c0.8,0.4,1.6,0.9,2.3,1.4c0.1,0.1,0.2,0.1,0.2,0.2
			c0.2,0.2,0.4,0.3,0.6,0.5c0.4,0.4,0.8,0.8,1.1,1.2c0,0.1,0.5,0.7,0.6,0.8c0.3,0.4,0.5,0.8,0.7,1.3c0.2,0.4,0.4,0.8,0.6,1.2
			c0,0,0.4,1,0.4,1.1c0.3,1,0.6,1.9,0.8,2.9c0.1,0.5,0.2,1,0.3,1.5c0,0.3,0.1,0.5,0.1,0.8c0,0,0,0.1,0,0.1c0,0.1,0,0.1,0,0.2
			c0.5,5,0.4,10,0.4,15.1c0,6.1,0.1,12.1,0.1,18.2c0.1,12.2,0.1,24.5,0.2,36.7c0.1,12.5,0.1,25,0.2,37.5
			c-11.5,0.4-22.9,0.9-34.4,1.3c-0.4-15.1-0.8-30.1-1.2-45.2c-0.2-8.2-0.5-16.4-0.7-24.6c-0.2-7.7-0.7-15.4-0.5-23
			c0.2-7.3,1.3-14.4,5.3-20.6c0.2-0.3,0.5-0.7,0.7-1c0.1-0.1,0.5-0.6,0.6-0.8C547.5,118.5,548.3,117.8,549.1,117.1L549.1,117.1z"/>
	</g>
	<g>
		<path class="st6" d="M450.8,200.6c-0.5-2.6-1.2-5.2-1.8-7.8c-2.8-10.9-6.6-21.6-10.5-32.2c-1-2.6-2-5.3-3-8
			c-3.7-9.9-7.1-20.1-13.7-28.6c-3.1-4-7.1-7.5-12-8.9c-5.3-1.6-10.9-0.5-15.8,1.8c-4.7,2.2-8.5,6-11.7,10c-3.4,4.4-6.5,9-9.5,13.7
			c-5.9,9.2-11.3,18.8-16.3,28.5c-5.1,9.9-9.7,20.1-13.9,30.4c-1.1,2.6-2.3,5.1-1.3,7.9c1,3,3.8,4.9,7,5c5.8,0.3,11.8,0.1,17.6,0.1
			c23.5,0.1,47.1,0.3,70.6,0.4c2.8,0,6.1,0.5,8.9-0.4c2.6-0.9,4.6-2.8,5.4-5.4C451.4,205,451.2,202.7,450.8,200.6L450.8,200.6z
			 M443,204.7C443,204.7,443,204.7,443,204.7C443,204.8,443,204.8,443,204.7L443,204.7C443,204.8,443,204.8,443,204.7
			c0,0.1,0,0.1,0,0.1l0,0c0,0,0,0,0,0l0,0c0,0,0,0,0,0l0,0l0,0l0,0c0,0,0,0,0,0c0,0,0,0,0,0C443,204.8,443,204.8,443,204.7
			L443,204.7C443,204.8,443,204.8,443,204.7C443.1,204.7,443.1,204.8,443,204.7C443.1,204.8,443.1,204.7,443,204.7L443,204.7z
			 M443,204.8L443,204.8L443,204.8L443,204.8z M442.9,204.9C442.9,204.9,442.9,204.9,442.9,204.9C443,204.9,443,204.9,442.9,204.9
			C442.9,204.9,442.9,204.9,442.9,204.9z M443,204.9L443,204.9c0,0,0,0.1-0.1,0.1C442.9,205,442.9,204.9,443,204.9z M443,204.8
			C443,204.8,443,204.8,443,204.8L443,204.8L443,204.8C443.2,204.7,443.3,204.6,443,204.8L443,204.8z M443,204.7
			C443,204.7,443,204.7,443,204.7c0-0.1,0.1-0.1,0.1-0.2C443.1,204.6,443.1,204.7,443,204.7L443,204.7z M443.1,204.5
			C443.1,204.3,443.1,204.4,443.1,204.5L443.1,204.5z M348.4,204.3C348.3,204.3,348.2,204.2,348.4,204.3L348.4,204.3z M434.6,204.9
			c-2.8,0-5.5,0-8.3,0c-5.4,0-10.8-0.1-16.3-0.1c-10.9-0.1-21.9-0.1-32.8-0.2c-5.4,0-10.8-0.1-16.3-0.1c-2.8,0-5.5,0-8.2,0
			c-1.1,0-2.2,0-3.2,0c0.1-0.2,0.2-0.5,0.3-0.8c0.5-1.2,1-2.4,1.5-3.6c0.9-2.2,1.8-4.4,2.8-6.6c2-4.6,4.2-9.2,6.4-13.8
			c4.5-9.2,9.3-18.1,14.5-26.9c2.6-4.4,5.3-8.7,8.1-12.9c2.6-4,5-7.6,8.3-11c3.1-3.1,6.3-5.3,10.5-6.2c3.4-0.7,7.3,0.2,10,2.6
			c6.6,6,10.2,14.5,13.2,22.7c0.9,2.3,1.7,4.5,2.5,6.8c3.7,9.9,7.4,19.7,10.5,29.7c1.5,5,3,10,4.1,15c0.2,1.1,0.5,2.1,0.7,3.2
			c0,0.1,0,0.3,0.1,0.5c0,0,0,0,0,0.1c0,0.4,0,0.9,0,1.3c0,0,0,0.1,0,0.1c0,0,0,0-0.1,0.1c-0.2,0-0.2,0.1-0.1,0.1
			c-0.1,0-0.2,0-0.4,0C439.9,205,437.2,204.9,434.6,204.9L434.6,204.9z"/>
		<path class="st7" d="M443,204.9C443,204.9,443,204.9,443,204.9C443,204.8,443,204.8,443,204.9C443,204.8,443,204.8,443,204.9
			C443,204.8,443,204.9,443,204.9z"/>
		<path class="st7" d="M443,204.8L443,204.8C443,204.8,443,204.8,443,204.8C443,204.8,443,204.8,443,204.8L443,204.8L443,204.8z"/>
	</g>
	<g>
		<defs>
			<path id="SVGID_1_" d="M420.6,119.3v113.1h87.5V119.3L420.6,119.3L420.6,119.3z M433.3,156.3l0,0.6c-0.3,2.9-0.5,5.9-0.7,9
				l-0.6,0.7c-1.4-3.9-2.9-7.8-4.3-11.7c-0.8-2.3-1.7-4.5-2.5-6.8c-0.2-0.5-0.4-1.1-0.6-1.6c0.1-0.7,0.2-1.4,0.4-2
				c0.7-3.5,1.9-6.6,3.3-9.4l0.2-0.1c2.2,4.6,4.1,9.5,5.9,14.4C433.8,151.6,433.6,153.9,433.3,156.3L433.3,156.3z"/>
		</defs>
		<clipPath id="SVGID_00000088134534489429782030000015886359804510544527_">
			<use xlink:href="#SVGID_1_"  style="overflow:visible;"/>
		</clipPath>
		<g style="clip-path:url(#SVGID_00000088134534489429782030000015886359804510544527_);">
			<path class="st3" d="M506,199.7c-0.4-6.5-1.1-13-1.6-19.5c-0.5-6.5-1.1-13.1-1.7-19.6c-0.5-5.5-0.8-11.2-2-16.6
				c-0.7-2.8-1.7-5.6-3-8.2c-2.7-5.1-7-8.6-12.3-10.7c-4.6-1.9-9.6-2.6-14.6-3.1c-8.6-0.9-17.7-1.6-26.1,0.9
				c-4.3,1.3-8.4,3.5-11.6,6.7c-3.9,4-6.2,9.4-7.3,14.8c-1.3,6.4-1.8,13-2.3,19.5c-0.4,6.5-0.7,13-0.8,19.5
				c-0.1,6.4-0.1,12.8-0.2,19.3c0,3.2,0,6.5-0.1,9.7c0,3-0.1,5.9,1.5,8.5c3.4,5.3,10.3,5.2,15.9,5.9c5.8,0.6,11.6,1,17.4,1.6
				c2.6,0.3,4.8,0.5,7,0.8c2.1,0.3,4.2,0.6,6.3,0.8c3.9,0.4,7.8,0.5,11.7,0c8.4-0.9,17-4.4,20.8-12.5
				C505.9,212,506.3,205.8,506,199.7L506,199.7z M440.6,134C440.7,133.9,440.8,133.8,440.6,134L440.6,134z M431.5,217.2
				C431.6,217.3,431.8,217.6,431.5,217.2L431.5,217.2z M431.9,217.4C431.8,217.4,431.7,217.3,431.9,217.4L431.9,217.4z M497.9,206.3
				c-0.2,2.3-0.6,4.6-1.5,6.9c-0.1,0.1-0.3,0.7-0.4,0.8c-0.2,0.4-0.4,0.8-0.7,1.1c-0.2,0.3-0.3,0.5-0.5,0.8c0,0-0.5,0.6-0.6,0.8
				c-0.5,0.6-1.1,1.1-1.7,1.6c-0.2,0.1-0.3,0.2-0.5,0.3c-0.4,0.2-0.8,0.5-1.2,0.7c-0.3,0.2-0.7,0.4-1.1,0.6
				c-0.2,0.1-0.7,0.3-0.8,0.3c-0.8,0.3-1.5,0.6-2.3,0.8c-0.8,0.2-1.7,0.4-2.5,0.6c-0.4,0.1-0.8,0.1-1.3,0.2c-0.3,0-0.6,0.1-0.9,0.1
				c-1.8,0.2-3.6,0.2-5.5,0.2c-1.8,0-3.6-0.1-5.4-0.3c-0.8-0.1-1.7-0.2-2.5-0.2c-0.4,0-0.8-0.1-1.2-0.1c-0.2,0-0.4,0-0.6-0.1
				c0,0,0,0,0,0c0,0,0,0-0.1,0c-5.2-0.8-10.4-1.3-15.6-1.7c-2.7-0.2-5.4-0.5-8-0.7c-2.5-0.2-5.4-0.6-7.4-0.9
				c-1.1-0.2-2.3-0.3-3.4-0.6c0,0-0.1,0-0.2-0.1c-0.2-0.1-0.3-0.2-0.5-0.3c0,0,0,0,0,0c0,0-0.3-0.3-0.4-0.4
				c-0.1-0.1-0.2-0.2-0.2-0.3c0,0,0,0,0,0c-0.1-0.2-0.1-0.4-0.2-0.6c0,0,0,0,0-0.1c0.1-1.5,0-3,0-4.5c0.1-6.1,0.1-12.3,0.1-18.4
				c0.1-12,0.3-24,1.5-36c0.5-5.3,1-10.9,3.1-15.9c0.4-1,0.9-1.9,1.5-2.8c0.3-0.4,0.5-0.8,0.8-1.2c-0.4,0.6-0.1,0.1,0,0
				c0.2-0.3,0.5-0.5,0.7-0.8c0.6-0.7,1.3-1.3,2-1.9c0,0,0.1-0.1,0.1-0.1c0.1-0.1,0.3-0.2,0.4-0.3c0.4-0.3,0.8-0.6,1.3-0.8
				c0.8-0.4,1.6-0.9,2.4-1.2c0,0,0,0,0,0c0.2-0.1,0.4-0.2,0.6-0.2c0.5-0.2,1-0.3,1.5-0.5c0.9-0.3,1.9-0.5,2.9-0.7
				c0.5-0.1,0.9-0.2,1.4-0.3c0.2,0,0.5-0.1,0.7-0.1c0,0,0,0,0,0c0,0,0,0,0.1,0c4-0.4,8-0.4,12-0.2c2,0.1,3.9,0.3,5.9,0.5
				c1,0.1,2.1,0.2,3.1,0.3c0.2,0,0.4,0.1,0.6,0.1c0.1,0,0.3,0,0.3,0.1c0.7,0.1,1.3,0.2,2,0.3c2.2,0.4,4.4,0.9,6.5,1.7
				c0.2,0.1,0.5,0.2,0.7,0.3c-0.2-0.1-0.6-0.3,0.1,0c0.5,0.2,0.9,0.4,1.4,0.7c0.5,0.2,0.9,0.5,1.3,0.8c0.2,0.1,0.4,0.3,0.6,0.4
				c0,0,0.3,0.3,0.5,0.4c0.1,0.1,0.3,0.2,0.3,0.3c0.2,0.2,0.4,0.3,0.6,0.5c0.4,0.4,0.7,0.7,1.1,1.1c0.7,0.8,1.3,1.9,1.9,2.9
				c0.6,1.2,0.8,1.5,1.2,2.7c0.4,1.3,0.8,2.6,1.1,4c0.3,1.2,0.5,2.4,0.7,3.6c0.1,0.6,0.1,0.4,0.2,1.2c0.1,0.7,0.2,1.4,0.2,2
				c0.5,5.6,0.9,11.2,1.4,16.8c0.5,6.2,1,12.3,1.6,18.5C497.4,194.7,498.3,200.6,497.9,206.3L497.9,206.3z"/>
		</g>
	</g>
	<g>
		<defs>
			<path id="SVGID_00000030450140012222956620000016034643914420021638_" d="M475,128v88.6h85.9V128L475,128L475,128z M497.4,148.1
				c-0.3,0.2-0.7,0.5-1,0.8l0,0c0,0-0.2,0.1-0.3,0.3l-0.2,0.2c-0.6,0.5-1.2,1-1.8,1.6l-0.2,0.2l-0.2,0c0-0.4,0-0.4-0.1-0.8
				c-0.2-1.2-0.4-2.4-0.7-3.6c-0.3-1.3-0.7-2.7-1.1-4c-0.4-1-0.5-1.4-1-2.3c2.1-1.5,4.4-2.9,7-4.3c1.3,2.5,2.2,5.2,2.9,7.9
				c0.1,0.6,0.3,1.2,0.4,1.8C499.7,146.6,498.5,147.4,497.4,148.1L497.4,148.1z"/>
		</defs>
		<clipPath id="SVGID_00000090984555616172637890000001254914982538651803_">
			<use xlink:href="#SVGID_00000030450140012222956620000016034643914420021638_"  style="overflow:visible;"/>
		</clipPath>
		<g style="clip-path:url(#SVGID_00000090984555616172637890000001254914982538651803_);">
			<path class="st4" d="M558.8,175.4c-0.2-8.9-1.9-17.9-6.1-25.8c-4.2-8-10.9-14.2-19.3-17.6c-7.9-3.2-16.7-2-24.6,0.6
				c-7.6,2.6-15.5,6.2-21.3,11.9c-12.5,12.3-13.8,33.4-4.6,48c8.9,14.1,25.6,22,42,22.1c2.6,0,5.2-0.2,7.7-0.6
				c8.7-1.4,16.7-5.9,21.1-13.7C558.1,192.8,559,183.8,558.8,175.4L558.8,175.4z M537.8,204.2C537.8,204.2,537.8,204.2,537.8,204.2
				L537.8,204.2z M550.6,180.8c0,0.9-0.1,1.8-0.2,2.6c-0.1,1.2-0.2,1.6-0.3,2.4c-0.3,1.8-0.7,3.6-1.2,5.3c-0.2,0.8-0.5,1.6-0.9,2.5
				c0,0,0,0.1,0,0.1c-0.1,0.2-0.2,0.3-0.2,0.5c-0.2,0.5-0.4,0.9-0.7,1.3c-0.4,0.8-0.9,1.6-1.5,2.4c-0.1,0.2-0.2,0.3-0.3,0.5
				c0,0,0,0,0,0.1c-0.3,0.4-0.7,0.8-1,1.1c-1.4,1.4-2.2,2.1-3.8,3c-0.7,0.5-1.5,0.9-2.3,1.2c-0.2,0.1-0.4,0.2-0.6,0.3c0,0,0,0-0.1,0
				c-0.5,0.2-1.1,0.4-1.7,0.6c-1.8,0.6-3.6,1-5.4,1.3c-3.3,0.5-8,0.4-11.1,0c0.2,0-0.7-0.1-0.9-0.1c-0.4-0.1-0.8-0.1-1.2-0.2
				c-0.9-0.2-1.8-0.4-2.7-0.6c-1.8-0.4-3.5-1-5.2-1.6c-1.6-0.6-2.5-1-4.2-1.9c-1.6-0.8-3.1-1.7-4.5-2.6c-1.7-1.1-2.4-1.7-3.8-2.9
				c-1.3-1.1-2.5-2.4-3.7-3.7c-1.3-1.5-1.8-2.1-2.9-3.9c-0.5-0.8-1-1.5-1.4-2.3c-0.2-0.4-0.4-0.8-0.6-1.2c-0.1-0.2-0.2-0.4-0.3-0.6
				c0,0-0.1-0.3-0.2-0.4c-0.8-1.8-1.3-3.6-1.7-5.5c-0.2-0.9-0.4-1.8-0.5-2.7c0,0,0-0.2,0-0.3c0-0.1,0-0.4,0-0.4c0-0.5-0.1-1-0.1-1.6
				c-0.5-7.3,1-14.1,5.2-20c0.6-0.9,0.4-0.6,1.1-1.4c0.6-0.7,1.2-1.3,1.8-2c0.6-0.6,1.2-1.1,1.8-1.7c0.1-0.1,0.5-0.4,0.6-0.5
				c0.3-0.3,0.7-0.5,1.1-0.8c2.9-2,6.1-3.5,9.2-4.9c0.1,0,0.7-0.3,0.7-0.3c0.4-0.2,0.9-0.4,1.3-0.5c0.9-0.4,1.8-0.7,2.7-1
				c1.8-0.6,3.6-1.1,5.4-1.5c0.9-0.2,1.7-0.4,2.6-0.5c0.7-0.1,1.2-0.2,2.4-0.3c1.7-0.1,3.3-0.1,5,0.1c0.1,0,0.6,0.1,0.7,0.1
				c0.4,0.1,0.8,0.2,1.2,0.3c0.9,0.2,1.8,0.6,2.6,0.9c0.2,0.1,0.3,0.1,0.5,0.2c0,0,0.1,0,0.2,0.1c0.5,0.2,0.9,0.4,1.4,0.7
				c0.9,0.4,1.7,0.9,2.5,1.4c1.6,1,2.5,1.7,4,3c0.7,0.6,1.3,1.2,1.9,1.9c0.3,0.4,0.7,0.8,1,1.2c0.4,0.5,0.3,0.3,0.6,0.8
				c2.2,3.1,3.9,6.3,5,9.5c0.7,1.9,1.2,3.8,1.6,5.7c0.2,0.9,0.4,1.8,0.5,2.7c0.1,0.5,0.2,0.9,0.2,1.4c0,0,0,0.3,0.1,0.4
				c0,0.1,0.1,0.5,0.1,0.6C550.7,173,550.8,177,550.6,180.8L550.6,180.8z"/>
		</g>
	</g>
	<g>
		<defs>
			<path id="SVGID_00000055700204684800064660000010013726113956549273_" d="M529.9,101.4v143.4H587V101.4L529.9,101.4L529.9,101.4z
				 M541.1,141.8c0,1.5,0,3,0,4.5l-0.2,0.3c-0.5-0.6-1.1-1.1-1.6-1.6c-1.5-1.3-2.3-2-4-3c-0.8-0.5-1.7-1-2.5-1.4
				c-0.5-0.2-0.9-0.5-1.4-0.7c-0.1,0-0.2-0.1-0.2-0.1c0,0-0.1,0-0.1-0.1c0.2-3,0.5-5.8,0.9-8.3c0.5,0.2,1,0.4,1.5,0.6
				c2.9,1.2,5.5,2.7,8,4.5C541.3,138.1,541.2,139.9,541.1,141.8L541.1,141.8z"/>
		</defs>
		<clipPath id="SVGID_00000115479878742286811360000017873528623536951967_">
			<use xlink:href="#SVGID_00000055700204684800064660000010013726113956549273_"  style="overflow:visible;"/>
		</clipPath>
		<g style="clip-path:url(#SVGID_00000115479878742286811360000017873528623536951967_);">
			<path class="st5" d="M584.6,159.4c0-6.4-0.1-12.9-0.1-19.3c0-5.4,0.1-10.8-0.7-16.1c-0.7-4.9-2.3-9.6-5.4-13.5
				c-3.2-3.9-7.9-6.2-12.8-6.8c-10.5-1.3-21.4,4.8-27.2,13.4c-8.2,12.7-6.5,29-6.1,43.4c0.5,16.8,0.9,33.5,1.4,50.2
				c0.3,9.4,0.5,18.8,0.8,28.2c0.1,2.1,1.8,4.2,4.1,4.1c14.1-0.5,28.3-1.1,42.4-1.6c2.2-0.1,4.1-1.8,4.1-4.1
				C584.9,211.2,584.8,185.3,584.6,159.4L584.6,159.4z M549.1,117.1c0.1-0.1,0.7-0.6,0.8-0.6c0.3-0.3,0.7-0.5,1.1-0.8
				c0.9-0.6,1.8-1.1,2.7-1.6c0.4-0.2,0.9-0.4,1.3-0.7c0,0,0.2-0.1,0.4-0.2c0.1-0.1,0.3-0.1,0.4-0.1c1-0.4,2-0.7,3-0.9
				c0.5-0.1,1-0.2,1.4-0.3c0.2,0,0.4-0.1,0.6-0.1c0,0,0.1,0,0.1,0c1-0.1,2-0.1,3-0.1c0.1,0,0.8,0.1,1,0.1c0.2,0.1,0.9,0.2,1,0.2
				c0.5,0.1,0.9,0.2,1.3,0.4c0.2,0.1,0.4,0.2,0.7,0.2c0,0,0,0,0,0c0,0,0,0,0.1,0.1c0.8,0.4,1.6,0.9,2.3,1.4c0.1,0.1,0.2,0.1,0.2,0.2
				c0.2,0.2,0.4,0.3,0.6,0.5c0.4,0.4,0.8,0.8,1.1,1.2c0,0.1,0.5,0.7,0.6,0.8c0.3,0.4,0.5,0.8,0.7,1.3c0.2,0.4,0.4,0.8,0.6,1.2
				c0,0,0.4,1,0.4,1.1c0.3,1,0.6,1.9,0.8,2.9c0.1,0.5,0.2,1,0.3,1.5c0,0.3,0.1,0.5,0.1,0.8c0,0,0,0.1,0,0.1c0,0.1,0,0.1,0,0.2
				c0.5,5,0.4,10,0.4,15.1c0,6.1,0.1,12.1,0.1,18.2c0.1,12.2,0.1,24.5,0.2,36.7c0.1,12.5,0.1,25,0.2,37.5
				c-11.5,0.4-22.9,0.9-34.4,1.3c-0.4-15.1-0.8-30.1-1.2-45.2c-0.2-8.2-0.5-16.4-0.7-24.6c-0.2-7.7-0.7-15.4-0.5-23
				c0.2-7.3,1.3-14.4,5.3-20.6c0.2-0.3,0.5-0.7,0.7-1c0.1-0.1,0.5-0.6,0.6-0.8C547.5,118.5,548.3,117.8,549.1,117.1L549.1,117.1z"/>
		</g>
	</g>
</g>
<path class="st6" d="M410.5,101.2c4.8-1.9,7.5-6.6,8.2-10.8l0,0c0.7-7.6-0.8-16.1-6-21.8c-3.1-3.2-9.7-5.1-14.1-1.7
	c0.5-0.4,0.5-0.4,0.2-0.1c-0.8,0.7-1.6,1.4-2.3,2.2c0.1-0.1,0.2-0.2,0.3-0.4c-7,8.7-6.5,23.2-0.6,29.3
	C399.4,101.2,405.2,103.1,410.5,101.2L410.5,101.2z"/>
<path class="st3" d="M467.7,107.2c5.1-1.2,8.4-5.4,9.7-9.5l0,0c1.8-7.4,1.7-16.1-2.7-22.5c-2.6-3.6-8.8-6.5-13.7-3.8
	c0.5-0.3,0.6-0.3,0.2-0.1c-0.9,0.5-1.8,1.2-2.6,1.9c0.1-0.1,0.2-0.2,0.4-0.3c-8.2,7.5-10,22-5,28.9
	C456.7,105.6,462.1,108.4,467.7,107.2L467.7,107.2z"/>
<path class="st4" d="M514.9,116.3c-5.1-1.2-8.4-5.4-9.7-9.5l0,0c-1.8-7.4-1.7-16.1,2.7-22.5c2.6-3.6,8.8-6.5,13.7-3.8
	c-0.5-0.3-0.6-0.3-0.2-0.1c0.9,0.5,1.8,1.2,2.6,1.9c-0.1-0.1-0.2-0.2-0.4-0.3c8.2,7.5,10,22,5,28.9
	C525.9,114.6,520.5,117.4,514.9,116.3L514.9,116.3z"/>
<path class="st5" d="M552.8,91.4c-5-1.5-8-5.9-9.1-10.1l0,0c-1.4-7.5-0.7-16.1,4.1-22.3c2.8-3.4,9.2-6,13.9-2.9
	c-0.5-0.3-0.6-0.4-0.2-0.1c0.9,0.6,1.7,1.3,2.5,2c-0.1-0.1-0.2-0.2-0.3-0.3c7.8,8,8.6,22.6,3.2,29.1
	C563.9,90.5,558.2,92.9,552.8,91.4L552.8,91.4z"/>
<g>
	<path class="st11" d="M80,590.1c-7.3-18.1-12.8-27-24.4-43.2H31.4v43c0,4.9-2,7.1-6.9,7.1H11.3c-4.9,0-7.1-2-7.1-7.1V459.1
		c0-5.1,2.2-7.1,7.1-7.1h42c38.6,0,58.1,16,58.1,47.7c0,22.1-9.7,36.5-28.8,43.2C94,557.4,102.5,571,109,587.3
		c2.4,5.9,0,9.7-5.9,9.7H89.9C84.8,597,82,595,80,590.1L80,590.1z M53.2,523.7c20.1,0,29.9-7.7,29.9-23.8S73.3,476,53.2,476H31.4
		v47.7L53.2,523.7L53.2,523.7z"/>
	<path class="st11" d="M123.5,543.8V459c0-5.1,2.2-7.1,7.1-7.1h13.2c4.9,0,6.9,2,6.9,7.1v82.6c0,24.4,6.5,32.1,27,32.1
		s26.8-7.7,26.8-32.1V459c0-5.1,2-7.1,6.9-7.1h13.2c4.9,0,7.1,2,7.1,7.1v84.7c0,38.8-16.2,55.4-54,55.4S123.5,582.6,123.5,543.8z"/>
	<path class="st11" d="M321.8,590.1c-7.3-18.1-12.8-27-24.4-43.2h-24.2v43c0,4.9-2,7.1-6.9,7.1h-13.2c-4.9,0-7.1-2-7.1-7.1V459.1
		c0-5.1,2.2-7.1,7.1-7.1h42c38.6,0,58.1,16,58.1,47.7c0,22.1-9.7,36.5-28.8,43.2c11.4,14.6,19.9,28.2,26.4,44.5
		c2.4,5.9,0,9.7-5.9,9.7h-13.2C326.6,597,323.8,595,321.8,590.1L321.8,590.1z M295,523.7c20.1,0,30-7.7,30-23.8s-9.8-23.8-30-23.8
		h-21.9v47.7L295,523.7L295,523.7z"/>
	<path class="st11" d="M358.8,590.7c0-15.4,26.6-103.1,45.1-133.2c2.2-3.3,4.1-5.5,10-5.5h12.4c5.9,0,7.9,2.2,10,5.5
		c18.5,30.2,45.1,117.8,45.1,133.2c0,4.7-2.4,6.3-6.3,6.3h-13.6c-5.9,0-8.3-2-9.1-6.7c-1.6-8.3-3.5-17.5-5.9-26.6h-54
		c-2.4,9.5-4.5,18.5-5.9,26.6c-0.8,4.7-3.2,6.7-9.1,6.7h-12.4C361.1,597,358.8,595.4,358.8,590.7L358.8,590.7z M441.1,540.8
		c-6.5-22.5-14.4-44.9-21.5-61.7c-7.3,17-15,39.6-21.5,61.7H441.1L441.1,540.8z"/>
	<path class="st11" d="M480.6,524.5c0-54,18.7-74.7,58.9-74.7c14.8,0,28.4,3.9,33.7,6.7c4.5,1.8,6.1,4.5,4.9,9.1l-3,12.2
		c-1.2,4.5-3.9,5.7-9.5,3.5c-8.3-3.2-16-5.5-24.2-5.5c-24,0-32.7,13-32.7,48.7s8.7,48.7,32.7,48.7c8.9,0,18.1-2,26.8-4.9
		c5.5-1.8,8.5-0.6,8.5,4.5v13.4c0,4.1-1.8,6.3-6.1,7.9c-6.7,3-19.5,5.1-31.1,5.1C499.3,599.1,480.6,578.4,480.6,524.5L480.6,524.5z"
		/>
	<path class="st11" d="M627.4,589.9V477h-32.5c-4.9,0-7.1-2.2-7.1-7.1V459c0-5.1,2.2-7.1,7.1-7.1h92.4c4.9,0,7.1,2,7.1,7.1v10.8
		c0,4.9-2.2,7.1-7.1,7.1h-32.5v112.9c0,5.1-2.2,7.1-7.1,7.1h-13.2C629.5,597,627.4,595,627.4,589.9L627.4,589.9z"/>
	<path class="st11" d="M704,589.9V459c0-5.1,2.2-7.1,7.1-7.1h13.2c4.9,0,6.9,2,6.9,7.1v130.8c0,5.1-2,7.1-6.9,7.1h-13.2
		C706.1,597,704,595,704,589.9z"/>
	<path class="st11" d="M786.2,591.5c-18.7-30.2-45.3-117.8-45.3-133.2c0-4.3,2.2-6.3,6.7-6.3h13.6c5.5,0,7.9,2,8.7,6.7
		c6.1,35.5,21.7,82.8,32.9,109c11.2-26.2,27-73.5,33.1-109c0.8-4.7,3-6.7,8.7-6.7H857c4.5,0,6.7,2,6.7,6.3
		c0,15.4-26.6,103.1-45.1,133.2c-2.2,3.3-4.1,5.5-10,5.5h-12.4C790.4,597,788.4,594.8,786.2,591.5L786.2,591.5z"/>
	<path class="st11" d="M869.8,589.9V459c0-5.1,2.2-7.1,7.1-7.1h78.2c4.9,0,7.1,2,7.1,7.1v10.8c0,4.9-2.2,7.1-7.1,7.1H897v35.1h49.8
		c5.1,0,7.1,2,7.1,7.1v10c0,4.9-2,7.1-7.1,7.1H897V572h58.1c4.9,0,7.1,2.2,7.1,7.1v10.8c0,5.1-2.2,7.1-7.1,7.1h-78.2
		C871.9,597,869.8,595,869.8,589.9L869.8,589.9z"/>
</g>
</svg>
